<svg xmlns="http://www.w3.org/2000/svg" width="150" height="50"><path fill="#333" d="M28.33 40.25L28.22 40.14L28.24 40.16Q26.40 40.11 24.72 40.68L24.75 40.71L24.72 40.68Q25.18 36.99 25.29 33.87L25.37 33.94L25.38 33.95Q25.43 30.85 25.21 27.19L25.18 27.17L25.21 27.19Q23.91 26.92 23.14 26.54L23.14 26.53L22.74 23.50L22.68 23.45Q23.39 24.05 24.99 24.62L25.05 24.67L25.13 24.75Q24.92 22.64 24.50 19.90L24.45 19.85L24.37 19.77Q26.69 20.49 28.32 20.34L28.43 20.44L28.15 24.88L28.29 25.03Q29.57 24.81 30.90 24.32L30.95 24.37L30.97 24.39Q30.96 25.33 30.73 27.08L30.65 27.00L30.61 26.97Q29.15 27.37 28.12 27.37L28.14 27.38L28.13 27.38Q28.23 29.65 28.23 33.91L28.18 33.86L28.16 33.84Q28.25 38.08 28.33 40.25ZM31.32 23.75L31.31 23.74L31.39 23.82Q31.15 23.96 30.54 24.19L30.53 24.18L30.86 21.35L30.89 21.38Q30.09 21.69 28.68 21.91L28.75 21.98L28.74 21.97Q28.78 21.33 28.93 19.96L28.80 19.82L28.89 19.91Q28.20 19.90 27.63 19.90L27.60 19.87L27.75 20.02Q25.43 19.84 23.79 19.12L23.91 19.23L23.91 19.23Q24.38 21.69 24.65 24.16L24.57 24.08L24.69 24.20Q23.69 23.73 22.16 22.70L22.26 22.80L22.17 22.70Q22.64 24.14 22.87 26.84L22.84 26.81L22.88 26.85Q23.33 27.07 24.51 27.49L24.41 27.39L24.43 27.40Q24.44 28.02 24.48 29.43L24.48 29.43L24.96 29.57L25.08 29.62L25.00 29.53Q25.04 30.76 25.04 31.94L25.12 32.01L25.12 32.02Q25.11 36.96 24.31 41.30L24.26 41.25L24.33 41.31Q24.51 41.19 26.45 40.66L26.47 40.68L26.46 40.67Q26.46 41.31 26.34 42.68L26.35 42.69L26.41 42.75Q27.09 42.56 27.89 42.56L27.97 42.63L27.90 42.56Q29.67 42.62 31.30 43.19L31.37 43.26L31.27 43.16Q29.88 37.38 30.07 29.46L30.22 29.62L32.54 29.16L32.56 29.18Q32.67 28.30 32.75 27.27L32.71 27.24L32.81 25.12L32.93 25.25Q32.38 25.53 31.20 25.99L31.14 25.93L31.08 25.87Q31.43 24.58 31.35 24.24L31.37 24.25L31.45 24.34Q31.35 24.04 31.42 23.85Z"/><path d="M10 36 C76 28,93 7,136 34" stroke="#222" fill="none"/><path fill="#111" d="M65.61 41.52L65.64 41.54L65.68 41.58Q63.46 41.08 61.29 40.92L61.31 40.95L61.32 40.96Q59.96 39.60 57.30 35.75L57.35 35.81L57.24 35.70Q55.00 38.75 52.60 41.18L52.70 41.29L50.50 41.56L50.64 41.70Q49.51 41.82 48.52 42.09L48.51 42.08L48.55 42.12Q52.75 38.02 55.75 33.91L55.80 33.95L55.70 33.85Q52.40 29.64 46.99 24.84L46.95 24.80L46.97 24.82Q49.37 25.73 52.07 26.15L51.96 26.04L52.00 26.08Q55.48 29.21 57.38 31.92L57.37 31.90L57.35 31.89Q59.40 28.76 62.14 26.25L62.26 26.37L62.27 26.38Q65.29 26.01 67.12 25.51L67.02 25.41L67.13 25.52Q62.50 29.08 58.81 33.65L58.85 33.69L58.75 33.59Q62.17 38.31 65.63 41.54ZM68.57 24.76L68.48 24.67L68.60 24.79Q65.65 25.57 62.11 25.91L62.03 25.83L62.03 25.83Q59.12 28.48 57.41 30.96L57.54 31.08L57.49 31.04Q56.52 29.91 54.88 27.93L54.96 28.01L54.68 27.92L54.83 28.07Q54.53 27.88 54.41 27.88L54.55 28.03L54.60 28.07Q53.78 27.17 52.14 25.73L52.04 25.63L52.18 25.77Q48.47 25.10 45.61 23.88L45.58 23.84L45.76 24.02Q51.22 28.76 55.25 33.90L55.28 33.93L55.20 33.84Q51.78 38.42 47.36 42.72L47.45 42.81L47.46 42.82Q47.71 42.73 51.21 41.89L51.21 41.89L51.12 41.79Q49.62 43.15 47.98 44.49L48.07 44.58L48.12 44.62Q51.29 43.68 54.45 43.49L54.37 43.41L54.29 43.34Q56.84 41.24 58.75 38.50L58.62 38.37L58.73 38.48Q60.01 40.11 61.23 41.29L61.34 41.40L61.40 41.45Q61.33 41.27 61.41 41.35L61.48 41.42L61.68 41.43L61.62 41.37Q62.87 42.47 64.20 43.53L64.29 43.63L64.30 43.63Q67.81 44.10 70.71 45.13L70.72 45.14L70.69 45.11Q64.60 40.73 60.90 35.56L60.85 35.50L60.94 35.60Q64.63 30.61 69.20 26.53L69.12 26.45L69.06 26.39Q68.24 26.86 67.25 27.09L67.21 27.05L65.11 27.43L65.19 27.50Q66.28 26.50 68.45 24.64Z"/><path fill="#333" d="M79.14 41.06L79.13 41.04L79.23 41.15Q82.41 36.90 89.11 28.98L89.06 28.94L88.95 28.82Q83.14 29.14 79.37 27.77L79.36 27.76L79.31 27.71Q78.75 26.39 77.99 24.98L77.97 24.97L78.03 25.02Q81.98 26.39 86.44 26.43L86.50 26.49L86.58 26.57Q91.04 26.61 95.23 25.55L95.13 25.44L95.15 25.46Q94.72 26.10 94.45 26.64L94.43 26.61L94.39 26.58Q91.85 28.79 89.03 32.41L89.07 32.45L84.24 38.74L84.13 38.62Q86.52 38.58 88.77 38.65L88.66 38.55L88.76 38.64Q90.97 38.72 93.22 39.10L93.03 38.92L93.20 39.09Q93.20 39.54 93.92 41.56L94.04 41.68L94.07 41.71Q90.20 40.74 86.21 40.85L86.29 40.94L86.32 40.96Q82.39 41.11 78.74 42.29L78.57 42.12L78.75 42.31Q78.76 42.09 79.22 41.13ZM78.03 42.76L78.17 42.90L78.17 42.90Q78.96 42.59 80.56 42.17L80.48 42.09L80.56 42.17Q80.18 42.25 79.76 42.67L79.89 42.79L79.74 42.65Q79.52 43.22 78.91 44.36L78.95 44.40L78.91 44.37Q83.64 43.04 88.63 43.19L88.58 43.15L88.70 43.27Q93.59 43.36 98.16 45.23L98.11 45.18L98.21 45.28Q96.77 43.42 95.86 41.37L95.77 41.28L95.83 41.34Q95.00 40.96 93.93 40.73L93.98 40.78L93.93 40.73Q93.73 40.00 93.35 38.55L93.36 38.56L93.45 38.66Q91.80 38.23 88.23 38.11L88.32 38.21L88.41 38.30Q90.71 34.89 95.74 28.53L95.80 28.60L95.73 28.52Q95.95 27.75 96.63 26.42L96.73 26.52L94.40 27.23L94.42 27.26Q94.45 27.13 94.60 27.02L94.67 27.08L94.76 26.79L94.90 26.93Q95.23 25.74 95.80 24.79L95.81 24.80L95.87 24.86Q91.08 26.08 86.36 26.01L86.47 26.11L86.38 26.03Q81.70 26.07 77.21 24.24L77.19 24.22L77.22 24.25Q78.34 26.06 79.14 28.11L79.15 28.12L79.12 28.09Q79.90 28.34 80.96 28.60L81.04 28.68L81.08 28.72Q81.24 29.38 81.55 30.82L81.50 30.78L81.45 30.73Q83.22 31.16 86.53 31.32L86.39 31.17L86.51 31.29Q84.13 34.62 78.95 41.06L78.83 40.93L78.94 41.05Q78.74 41.69 78.17 42.91Z"/><path fill="#222" d="M116.43 30.45L116.33 30.36L116.40 30.43Q112.95 36.79 109.52 40.75L109.49 40.72L109.52 40.75Q107.69 41.20 105.25 42.08L105.28 42.10L105.15 41.98Q110.02 36.34 114.78 27.93L114.85 27.99L114.92 28.07Q110.29 21.08 104.32 14.69L104.26 14.63L104.32 14.69Q107.26 15.91 109.54 16.41L109.54 16.41L109.42 16.29Q114.21 21.64 116.64 25.60L116.54 25.50L116.63 25.59Q119.17 21.21 123.10 16.79L123.02 16.72L123.09 16.79Q124.69 16.48 127.88 15.72L127.73 15.57L127.78 15.61Q121.62 21.98 118.16 27.92L118.27 28.03L118.31 28.07Q123.50 36.76 127.88 41.33L127.83 41.28L127.71 41.16Q125.29 40.53 123.20 40.30L123.12 40.22L123.19 40.29Q120.38 37.30 116.46 30.49ZM123.05 40.58L123.03 40.55L122.99 40.52Q123.27 40.52 123.72 40.64L123.81 40.73L123.90 40.82Q124.60 41.48 126.12 43.08L126.19 43.14L126.17 43.12Q129.44 43.84 132.48 45.21L132.43 45.16L132.47 45.20Q125.37 38.64 120.27 29.88L120.29 29.90L120.25 29.86Q124.10 23.31 130.00 16.46L129.88 16.34L130.03 16.49Q128.58 17.14 126.41 17.67L126.34 17.60L126.31 17.57Q127.25 16.72 129.00 14.93L129.04 14.97L128.92 14.84Q126.58 15.78 122.89 16.35L122.87 16.34L122.84 16.31Q119.48 20.17 116.89 24.48L116.79 24.38L116.88 24.47Q115.92 22.83 114.74 21.34L114.83 21.43L112.52 18.47L112.02 18.35L112.17 18.50Q112.00 18.49 111.77 18.41L111.79 18.43L111.70 18.33Q111.01 17.50 109.53 15.94L109.43 15.84L109.56 15.97Q105.65 14.99 103.06 13.62L103.22 13.78L103.20 13.76Q109.93 21.03 114.50 28.07L114.41 27.97L114.40 27.96Q110.02 36.26 104.27 42.85L104.22 42.80L104.29 42.87Q105.60 42.19 107.73 41.62L107.66 41.56L106.34 42.98L106.34 42.98Q106.43 43.07 105.10 44.40L104.97 44.27L105.09 44.39Q108.13 43.36 111.29 42.86L111.24 42.81L111.14 42.72Q115.21 38.26 117.80 33.50L117.81 33.51L117.86 33.56Q120.43 37.81 123.14 40.66Z"/></svg>